<?xml version="1.0" encoding="UTF-8" standalone="no"?>
<!-- Created with Inkscape (http://www.inkscape.org/) -->

<svg
   xmlns:dc="http://purl.org/dc/elements/1.1/"
   xmlns:cc="http://creativecommons.org/ns#"
   xmlns:rdf="http://www.w3.org/1999/02/22-rdf-syntax-ns#"
   xmlns:svg="http://www.w3.org/2000/svg"
   xmlns="http://www.w3.org/2000/svg"
   xmlns:sodipodi="http://sodipodi.sourceforge.net/DTD/sodipodi-0.dtd"
   xmlns:inkscape="http://www.inkscape.org/namespaces/inkscape"
   width="10mm"
   height="10mm"
   viewBox="0 0 10 10"
   version="1.1"
   id="svg1709"
   sodipodi:docname="WebIcon.plain.svg"
   inkscape:version="0.92.3 (2405546, 2018-03-11)">
  <defs
     id="defs1703" />
  <sodipodi:namedview
     id="base"
     pagecolor="#ffffff"
     bordercolor="#666666"
     borderopacity="1.0"
     inkscape:pageopacity="0.0"
     inkscape:pageshadow="2"
     inkscape:zoom="5.6"
     inkscape:cx="53.511186"
     inkscape:cy="20.123109"
     inkscape:document-units="mm"
     inkscape:current-layer="layer1"
     showgrid="false"
     fit-margin-top="0"
     fit-margin-left="0"
     fit-margin-right="0"
     fit-margin-bottom="0"
     inkscape:window-width="1920"
     inkscape:window-height="1016"
     inkscape:window-x="0"
     inkscape:window-y="27"
     inkscape:window-maximized="1" />
  <metadata
     id="metadata1706">
    <rdf:RDF>
      <cc:Work
         rdf:about="">
        <dc:format>image/svg+xml</dc:format>
        <dc:type
           rdf:resource="http://purl.org/dc/dcmitype/StillImage" />
        <dc:title></dc:title>
      </cc:Work>
    </rdf:RDF>
  </metadata>
  <g
     inkscape:label="Layer 1"
     inkscape:groupmode="layer"
     id="layer1"
     transform="translate(-329.69791,-200.71875)">
    <rect
       style="display:inline;opacity:1;vector-effect:none;fill:#6c1b85;fill-opacity:1;stroke:none;stroke-width:0.32632199;stroke-linecap:butt;stroke-linejoin:miter;stroke-miterlimit:4;stroke-dasharray:0.65264398, 0.65264398;stroke-dashoffset:0;stroke-opacity:1;paint-order:normal"
       id="rect8573-7-3"
       width="10"
       height="10"
       x="329.69791"
       y="200.71875"
       inkscape:export-xdpi="76.199974"
       inkscape:export-ydpi="76.199974" />
    <path
       inkscape:connector-curvature="0"
       id="path3733-5-7-7-7"
       style="display:inline;fill:#ffffff;fill-opacity:1;fill-rule:nonzero;stroke:#000000;stroke-width:0.03699802;stroke-opacity:1"
       d="m 334.63035,208.70974 c 0,0 -2.50979,-1.73328 -4.72168,-0.76849 0,0 2.37782,-0.6532 4.72168,1.49853 2.34375,-2.15173 4.85677,-1.49853 4.85677,-1.49853 -2.47761,-1.03639 -4.85677,0.76849 -4.85677,0.76849" />
    <path
       inkscape:connector-curvature="0"
       id="path3737-4-5-1-5"
       style="display:inline;fill:#ffffff;fill-opacity:1;fill-rule:nonzero;stroke:#000000;stroke-width:0.03699802;stroke-opacity:1"
       d="m 334.35432,208.29394 c 0,0 -1.72481,-1.28083 -3.96205,-0.78557 l -0.63185,-0.7514 c 0,0 2.80071,-0.25617 4.5939,1.53697" />
    <path
       inkscape:connector-curvature="0"
       id="path3741-1-6-5-3"
       style="display:inline;fill:#ffffff;fill-opacity:1;fill-rule:nonzero;stroke:#000000;stroke-width:0.03699802;stroke-opacity:1"
       d="m 334.39124,208.18736 c 0,0 -1.23618,-1.62059 -3.52758,-1.616 l -0.63052,-0.86934 c 0,0 2.79062,0.34967 4.1581,2.48534" />
    <path
       inkscape:connector-curvature="0"
       id="path3745-5-54-8-5"
       style="display:inline;fill:#ffffff;fill-opacity:1;fill-rule:nonzero;stroke:#000000;stroke-width:0.03699802;stroke-opacity:1"
       d="m 335.04145,208.29394 c 0,0 1.72488,-1.28083 3.96204,-0.78557 l 0.63193,-0.7514 c 0,0 -2.80079,-0.25617 -4.59397,1.53697" />
    <path
       inkscape:connector-curvature="0"
       id="path3749-5-2-8-6"
       style="display:inline;fill:#ffffff;fill-opacity:1;fill-rule:nonzero;stroke:#000000;stroke-width:0.03699802;stroke-opacity:1"
       d="m 335.00453,208.18736 c 0,0 1.23625,-1.62059 3.52761,-1.616 l 0.63056,-0.86934 c 0,0 -2.79069,0.34967 -4.15817,2.48534" />
    <path
       inkscape:connector-curvature="0"
       id="path3753-4-21-4-2"
       style="display:inline;fill:#ffffff;fill-opacity:1;fill-rule:nonzero;stroke:#000000;stroke-width:0.03699802;stroke-opacity:1"
       d="m 336.88228,204.10817 c 0.11055,-0.44013 0.14663,-0.91792 0.10304,-1.41115 -0.49325,0.14726 -0.93912,0.36828 -1.31676,0.64862 0.10312,0.3362 0.15769,0.67728 0.16002,1.01437 0.32828,-0.13523 0.68328,-0.21921 1.0537,-0.25184" />
    <path
       inkscape:connector-curvature="0"
       id="path3757-9-72-5-9"
       style="display:inline;fill:#ffffff;fill-opacity:1;fill-rule:nonzero;stroke:#000000;stroke-width:0.03699802;stroke-opacity:1"
       d="m 335.31334,206.17102 c -0.12328,0.025 -0.23716,0.0363 -0.33594,0.0402 0.0704,0.0385 0.15195,0.0773 0.24344,0.1114 0.44664,0.16664 0.90616,0.14903 1.36597,-0.0522 0.74529,-0.32636 1.38683,-0.96309 1.81557,-1.7994 -0.45834,-0.12775 -0.91615,-0.18059 -1.35317,-0.15935 -0.1063,0.36177 -0.26187,0.69771 -0.46429,0.99584 -0.39388,0.58043 -0.90889,0.78991 -1.27158,0.86346" />
    <path
       inkscape:connector-curvature="0"
       id="path3761-8-41-6-1"
       style="display:inline;fill:#ffffff;fill-opacity:1;fill-rule:nonzero;stroke:#000000;stroke-width:0.03699802;stroke-opacity:1"
       d="m 333.7209,203.34089 c -0.37627,-0.27808 -0.81987,-0.49744 -1.31032,-0.64384 -0.0436,0.49322 -0.007,0.97098 0.10304,1.41114 0.36746,0.0323 0.7198,0.11518 1.04586,0.24852 0.003,-0.33761 0.0577,-0.67921 0.16142,-1.01582" />
    <path
       inkscape:connector-curvature="0"
       id="path3765-3-65-5-2"
       style="display:inline;fill:#ffffff;fill-opacity:1;fill-rule:nonzero;stroke:#000000;stroke-width:0.03699802;stroke-opacity:1"
       d="m 332.81091,205.30757 c -0.20242,-0.29817 -0.35792,-0.63404 -0.46421,-0.9958 -0.43702,-0.0212 -0.8948,0.0316 -1.35321,0.15931 0.42877,0.8363 1.07036,1.47311 1.81561,1.79936 0.45973,0.20127 0.91932,0.21884 1.36596,0.0522 0.0915,-0.0341 0.17301,-0.0729 0.24345,-0.11141 -0.0989,-0.004 -0.21266,-0.0152 -0.33598,-0.0402 -0.36265,-0.0736 -0.87767,-0.28304 -1.27162,-0.86346" />
    <path
       inkscape:connector-curvature="0"
       id="path3769-8-7-6-7"
       style="display:inline;fill:#ffffff;fill-opacity:1;fill-rule:nonzero;stroke:#000000;stroke-width:0.03699802;stroke-opacity:1"
       d="m 334.68892,204.0329 c 0.003,0.005 0.006,0.009 0.009,0.0137 0.003,-0.005 0.006,-0.009 0.009,-0.0137 0.19235,-0.2834 0.4321,-0.54002 0.71036,-0.76426 -0.15505,-0.4422 -0.39924,-0.87367 -0.72334,-1.27096 -0.32296,0.39577 -0.56652,0.82554 -0.72173,1.26604 0.28097,0.22546 0.52282,0.48367 0.71662,0.76918" />
    <path
       inkscape:connector-curvature="0"
       id="path3773-5-85-8-0"
       style="display:inline;fill:#ffad4a;fill-opacity:1;fill-rule:nonzero;stroke:#000000;stroke-width:0.03699802;stroke-opacity:1"
       d="m 335.43163,205.42098 c 0.004,0.4052 -0.32218,0.73652 -0.72738,0.73996 -0.40524,0.003 -0.73649,-0.32218 -0.74004,-0.72742 -0.003,-0.40516 0.32225,-0.73648 0.72742,-0.73996 0.4052,-0.003 0.73652,0.32218 0.74,0.72742" />
  </g>
</svg>
